IMDB/Wiki Link : [url]http://www.imdb.com/title/tt1499249/[/url]


[code]Movie Name :- Lake Placid 3 (2010)

Ratings: 3.4/10 from 1,621 users

Relese Date : 21 August 2010 (USA)

Genre : Action | Horror | Sci-Fi

Runtime : 95.58 Min

Director : Griff Furst

Stars : Colin Ferguson, Yancy Butler, Kirsty Mitchell

Size : 139.48 MB

Source : HDTV XviD-aAF[/code]


[i]Thanks to Timba[/i]






[b]Story Line:-[/b]

A game warden moves his family to Lake Placid, once the site of deadly crocodile attacks. Locals assure him the crocs are gone, but his mischievous young son finds a few baby crocs and begins feeding them. They quickly grow into very big adults and start attacking the game warden's family and nearby town.



General:-


[code]Complete name                            : Lake_Placid_3_2010_Hindi_Dubbed_UNCUT_HDTVRip
Format                                   : AVI
Format/Info                              : Audio Video Interleave
File size                                : 139 MiB
Duration                                 : 1h 35mn
Overall bit rate                         : 203 Kbps
Writing application                      : MEncoder SVN-r30881(20100311-gcc4.3.3)
Writing library                          : MPlayer[/code]

Video:-


[code]
ID                                       : 0
Format                                   : MPEG-4 Visual
Format profile                           : Advanced Simple@L5
Format settings, BVOP                    : 2
Format settings, QPel                    : No
Format settings, GMC                     : No warppoints
Format settings, Matrix                  : Default (H.263)
Codec ID                                 : XVID
Codec ID/Hint                            : XviD
Duration                                 : 1h 35mn
Bit rate                                 : 159 Kbps
Width                                    : 320 pixels
Height                                   : 240 pixels
Display aspect ratio                     : 4:3
Frame rate                               : 25.000 fps
Color space                              : YUV
Chroma subsampling                       : 4:2:0
Bit depth                                : 8 bits
Scan type                                : Progressive
Compression mode                         : Lossy
Bits/(Pixel*Frame)                       : 0.083
Stream size                              : 109 MiB (78%)
Writing library                          : XviD 1.2.1 (UTC 2008-12-04)[/code]

Audio:-



[code]ID                                       : 1
Format                                   : MPEG Audio
Format version                           : Version 2
Format profile                           : Layer 3
Codec ID                                 : 55
Codec ID/Hint                            : MP3
Duration                                 : 1h 35mn
Bit rate mode                            : Constant
Bit rate                                 : 32.0 Kbps
Channel(s)                               : 1 channel
Sampling rate                            : 22.05 KHz
Compression mode                         : Lossy
Delay relative to video                  : 40ms
Stream size                              : 22.0 MiB (16%)
Alignment                                : Aligned on interleaves
Interleave, duration                     : 26 ms (0.65 video frame)
Interleave, preload duration             : 522 ms[/code]




[img]http://www.shotpix.com/images/39741266100115848635.gif[/img]




[img]http://img842.imageshack.us/img842/8681/lakeplacid32010hindidub.jpg[/img]




[img]http://www.shotpix.com/images/37530658244654420663.jpg[/img]





[img]http://www.shotpix.com/images/23865657949202556159.gif[/img]

